<?xml version="1.0" encoding="UTF-8" standalone="no"?>
<!-- Created with Inkscape (http://www.inkscape.org/) -->

<svg
   width="210mm"
   height="297mm"
   viewBox="0 0 210 297"
   version="1.1"
   id="svg1118"
   inkscape:version="1.1.1 (eb90963e84, 2021-10-02)"
   sodipodi:docname="brain.svg"
   xmlns:inkscape="http://www.inkscape.org/namespaces/inkscape"
   xmlns:sodipodi="http://sodipodi.sourceforge.net/DTD/sodipodi-0.dtd"
   xmlns="http://www.w3.org/2000/svg"
   xmlns:svg="http://www.w3.org/2000/svg">
  <sodipodi:namedview
     id="namedview1120"
     pagecolor="#ffffff"
     bordercolor="#666666"
     borderopacity="1.0"
     inkscape:pageshadow="2"
     inkscape:pageopacity="0.0"
     inkscape:pagecheckerboard="0"
     inkscape:document-units="mm"
     showgrid="false"
     inkscape:zoom="0.9549944"
     inkscape:cx="428.27476"
     inkscape:cy="634.55869"
     inkscape:window-width="1280"
     inkscape:window-height="656"
     inkscape:window-x="0"
     inkscape:window-y="27"
     inkscape:window-maximized="1"
     inkscape:current-layer="layer1-7" />
  <defs
     id="defs1115">
    <rect
       x="413.44504"
       y="281.32794"
       width="193.64256"
       height="73.131805"
       id="rect93529-6-6" />
    <marker
       style="overflow:visible"
       id="Arrow1Lend-27"
       refX="0"
       refY="0"
       orient="auto"
       inkscape:stockid="Arrow1Lend"
       inkscape:isstock="true">
      <path
         transform="matrix(-0.8,0,0,-0.8,-10,0)"
         style="fill:context-stroke;fill-rule:evenodd;stroke:context-stroke;stroke-width:1pt"
         d="M 0,0 5,-5 -12.5,0 5,5 Z"
         id="path1171-0" />
    </marker>
    <rect
       x="413.44504"
       y="281.32794"
       width="193.64256"
       height="73.131805"
       id="rect93529-6-6-7" />
    <rect
       x="109.67108"
       y="145.13972"
       width="276.90942"
       height="67.197441"
       id="rect14321-36" />
    <rect
       x="109.67108"
       y="145.13972"
       width="276.90942"
       height="67.197441"
       id="rect14321-7-0" />
    <rect
       x="109.67108"
       y="145.13972"
       width="276.90942"
       height="67.197441"
       id="rect14321-3-6" />
    <clipPath
       clipPathUnits="userSpaceOnUse"
       id="clipPath15414">
      <rect
         style="fill:#b83779;stroke:#000000;stroke-width:1.70079;stroke-dashoffset:22.6772;stroke-opacity:0.741844"
         id="rect15416"
         width="178.56"
         height="17.856001"
         x="28.800001"
         y="46.702801" />
    </clipPath>
    <clipPath
       id="p27887b4ff1">
      <rect
         height="17.856001"
         width="178.56"
         x="28.799999"
         y="46.702801"
         id="rect15381" />
    </clipPath>
    <rect
       x="109.67108"
       y="145.13972"
       width="276.90942"
       height="67.197441"
       id="rect14321-2-6" />
    <rect
       x="109.67108"
       y="145.13972"
       width="276.90942"
       height="67.197441"
       id="rect14321-7-9-3" />
    <rect
       x="109.67108"
       y="145.13972"
       width="276.90942"
       height="67.197441"
       id="rect14321-3-1-7" />
    <rect
       x="109.67108"
       y="145.13972"
       width="276.90942"
       height="67.197441"
       id="rect14321-2" />
    <rect
       x="109.67108"
       y="145.13972"
       width="276.90942"
       height="67.197441"
       id="rect14321-7-9" />
    <rect
       x="109.67108"
       y="145.13972"
       width="276.90942"
       height="67.197441"
       id="rect14321-3-1" />
    <rect
       x="413.44504"
       y="281.32794"
       width="126.30395"
       height="64.589989"
       id="rect93529" />
    <rect
       x="103.56422"
       y="469.26031"
       width="197.03378"
       height="53.404224"
       id="rect58161" />
    <rect
       x="413.44504"
       y="281.32794"
       width="193.64256"
       height="73.131805"
       id="rect93529-6" />
    <marker
       style="overflow:visible"
       id="Arrow1Lend"
       refX="0"
       refY="0"
       orient="auto"
       inkscape:stockid="Arrow1Lend"
       inkscape:isstock="true">
      <path
         transform="matrix(-0.8,0,0,-0.8,-10,0)"
         style="fill:context-stroke;fill-rule:evenodd;stroke:context-stroke;stroke-width:1pt"
         d="M 0,0 5,-5 -12.5,0 5,5 Z"
         id="path1171" />
    </marker>
    <marker
       style="overflow:visible"
       id="Arrow1Lend-2"
       refX="0"
       refY="0"
       orient="auto"
       inkscape:stockid="Arrow1Lend"
       inkscape:isstock="true">
      <path
         transform="matrix(-0.8,0,0,-0.8,-10,0)"
         style="fill:context-stroke;fill-rule:evenodd;stroke:context-stroke;stroke-width:1pt"
         d="M 0,0 5,-5 -12.5,0 5,5 Z"
         id="path1171-9" />
    </marker>
    <rect
       x="413.44504"
       y="281.32794"
       width="205.81964"
       height="83.955437"
       id="rect93529-6-7" />
    <clipPath
       clipPathUnits="userSpaceOnUse"
       id="clipPath225">
      <rect
         style="fill:#000000;stroke:#000000;stroke-width:1.66973;stroke-dashoffset:7.55906;stroke-opacity:0.741844"
         id="rect227"
         width="1636.976"
         height="991.83765"
         x="1684.2406"
         y="119.85217" />
    </clipPath>
    <clipPath
       clipPathUnits="userSpaceOnUse"
       id="clipPath333">
      <rect
         style="fill:#000000;stroke:#000000;stroke-width:1.66973;stroke-dashoffset:7.55906;stroke-opacity:0.741844"
         id="rect335"
         width="1861.4258"
         height="955.69061"
         x="1710.7476"
         y="119.85217" />
    </clipPath>
    <clipPath
       clipPathUnits="userSpaceOnUse"
       id="clipPath441">
      <rect
         style="fill:#000000;stroke:#000000;stroke-width:1.66973;stroke-dashoffset:7.55906;stroke-opacity:0.741844"
         id="rect443"
         width="1600.7678"
         height="950.26385"
         x="1710.7476"
         y="119.85217" />
    </clipPath>
    <clipPath
       clipPathUnits="userSpaceOnUse"
       id="clipPath549">
      <ellipse
         style="fill:#000000;stroke:#000000;stroke-width:7.40293;stroke-dashoffset:7.55906;stroke-opacity:0.741844"
         id="ellipse551"
         cx="2272.0645"
         cy="-1295.2434"
         rx="856.34351"
         ry="524.92621"
         transform="matrix(0.95971104,-0.28098882,-0.26206615,-0.96504991,0,0)" />
    </clipPath>
  </defs>
  <g
     inkscape:label="Layer 1"
     inkscape:groupmode="layer"
     id="layer1">
    <g
       style="fill:#ffffff;fill-opacity:1;stroke-width:3.41054;stroke-miterlimit:4;stroke-dasharray:none;image-rendering:auto"
       inkscape:label="Layer 1"
       id="layer1-7"
       transform="matrix(0.11977994,0,0,0.11977994,64.044847,107.10973)"
       inkscape:export-filename="/home/emdupre/Desktop/dissertation/Aim1/fmralign-tutorials/images/churchland-1998-fig1.png"
       inkscape:export-xdpi="96"
       inkscape:export-ydpi="96">
      <path
         style="fill:none;fill-opacity:1;stroke:#000000;stroke-width:3.41054;stroke-linecap:butt;stroke-linejoin:miter;stroke-miterlimit:4;stroke-dasharray:none;stroke-opacity:1"
         d="m 73.968772,357.91117 c 28.953418,-10.06051 47.800238,-10.74033 90.080358,-1.34475 38.25524,10.90174 102.51855,42.35487 126.86717,61.93457"
         id="path3196"
         inkscape:connector-curvature="0"
         sodipodi:nodetypes="ccc" />
      <path
         style="fill:none;fill-opacity:1;stroke:#000000;stroke-width:3.41054;stroke-linecap:butt;stroke-linejoin:miter;stroke-miterlimit:4;stroke-dasharray:none;stroke-opacity:1"
         d="M 411.74295,383.32973 C 409.00258,359.0578 396.5898,330.33709 391.10903,325.24781 359.52008,295.91525 336.99791,291.86688 308.50621,277.87842 271.97281,259.94177 234.32944,251.40659 195.67576,231.22004"
         id="path3198"
         inkscape:connector-curvature="0"
         sodipodi:nodetypes="csac" />
      <path
         inkscape:connector-curvature="0"
         style="color:#000000;display:inline;overflow:visible;visibility:visible;fill:none;fill-opacity:1;stroke:#000000;stroke-width:3.41054;stroke-miterlimit:4;stroke-dasharray:none;marker:none;enable-background:accumulate"
         d="m 229.77596,484.47014 c 5.03053,-3.22505 10.01218,-8.9673 19.14894,-22.07262 9.27838,-13.30844 13.8783,-18.38995 24.08517,-26.60673 4.3069,-3.46715 10.20074,-8.57223 13.09741,-11.34458 l 5.26669,-5.04068 4.38847,3.82986 c 18.27409,15.94795 24.12408,19.90031 33.35103,22.53257 11.23486,3.20509 28.90292,0.10249 50.77274,-8.91588 21.95329,-9.0528 27.89631,-17.15649 31.07433,-42.37182 l 1.34378,-10.66195 6.30093,-0.4906 c 3.46552,-0.26985 11.40979,-0.50193 17.65394,-0.51574 16.05355,-0.0355 34.02173,-1.25918 40.80171,-2.77865 12.54585,-2.81166 27.80068,-10.69477 36.84675,-19.04101 16.3412,-15.07701 25.87475,-40.50079 24.67824,-65.81119 -0.91913,-19.44291 -4.23708,-32.16395 -12.98098,-49.76933 -8.49126,-17.09666 -16.80405,-30.20824 -29.53245,-46.58091 -14.68881,-18.89436 -21.57962,-25.56368 -43.24957,-41.85952 -19.24022,-14.46869 -33.1774,-22.3819 -66.67347,-37.8557 -28.79523,-13.3022 -34.5186,-15.33209 -51.01162,-18.09214 -7.9013,-1.322247 -17.88933,-3.461697 -22.19564,-4.754307 -12.9819,-3.89675 -17.24278,-4.54233 -36.01639,-5.45703 -9.90451,-0.48257 -21.4808,-1.21535 -25.72507,-1.6284 -20.46194,-1.99131 -26.83214,-0.85153 -54.92035,9.82658 -43.07396,16.375147 -50.74485,22.256877 -84.13309,64.509947 -20.951509,26.51428 -28.262564,38.84107 -46.192355,77.88259 -14.220272,30.96417 -17.082893,42.62589 -16.264956,66.26015 0.466149,13.46909 1.673122,18.70541 6.58731,28.57822 3.604924,7.24244 5.231185,9.32145 15.647089,20.00306 5.485843,5.62578 9.399486,10.35916 10.359419,12.52926 1.244921,2.81434 1.709086,6.58636 2.404101,19.5367 0.963265,17.94913 1.934828,23.21345 6.066704,32.87211 12.085688,28.25152 34.179508,49.31784 61.288248,58.438 6.64788,2.23653 6.67845,2.23905 27.79526,2.29448 21.06134,0.0552 21.16193,0.0635 27.0123,2.21171 13.19584,4.84541 15.84141,4.88505 22.92538,0.34355 z"
         id="path3144-6" />
      <path
         style="fill:#ffffff;fill-opacity:1;stroke:#a6a6a6;stroke-width:3.41054;stroke-linecap:butt;stroke-linejoin:miter;stroke-miterlimit:4;stroke-dasharray:none;stroke-opacity:1"
         d="m 183.13412,117.39741 c 6.09004,20.48468 17.16285,51.48852 48.16669,57.57856 31.00384,6.09004 57.57857,-1.10728 78.61688,1.10728 39.35139,4.14223 86.92149,28.23564 109.06709,48.16668 22.1456,19.93105 24.36015,32.11112 24.36015,32.11112"
         id="path4040"
         inkscape:connector-curvature="0"
         sodipodi:nodetypes="csssc" />
      <path
         style="fill:#ffffff;fill-opacity:1;stroke:#000000;stroke-width:3.41054;stroke-linecap:butt;stroke-linejoin:miter;stroke-miterlimit:4;stroke-dasharray:none;stroke-opacity:1"
         d="m 270.05561,91.376343 c 0,0 -5.46092,13.248317 -1.10729,18.270107 9.59068,11.06257 44.29121,24.91381 46.50577,32.66476 2.21456,7.75096 -0.55364,16.6092 4.98276,25.46744 21.58469,26.45694 22.74502,58.901 19.3774,88.5824"
         id="path3968"
         inkscape:connector-curvature="0"
         sodipodi:nodetypes="ccscc" />
      <path
         style="fill:#ffffff;fill-opacity:1;stroke:#000000;stroke-width:3.41054;stroke-linecap:butt;stroke-linejoin:miter;stroke-miterlimit:4;stroke-dasharray:none;stroke-opacity:1"
         d="m 156.55941,119.90847 c 25.79175,0.9336 25.13018,12.80357 38.73851,15.92122 14.00935,3.20952 29.43431,-2.03089 43.03804,2.60605 14.39416,4.90636 26.69585,11.25969 37.74252,25.62959 18.60058,28.49103 11.50821,53.34432 -6.5765,74.57924"
         id="path3970"
         inkscape:connector-curvature="0"
         sodipodi:nodetypes="caacc" />
      <path
         style="fill:#ffffff;fill-opacity:1;stroke:#000000;stroke-width:3.41054;stroke-linecap:butt;stroke-linejoin:miter;stroke-miterlimit:4;stroke-dasharray:none;stroke-opacity:1"
         d="m 371.37173,147.84762 c 0,0 -6.01472,35.33797 8.70761,48.63685 18.73718,16.92554 84.20892,58.02569 84.92472,70.40727"
         id="path3972"
         inkscape:connector-curvature="0"
         sodipodi:nodetypes="csc" />
      <path
         style="fill:#ffffff;fill-opacity:1;stroke:#000000;stroke-width:3.41054;stroke-linecap:butt;stroke-linejoin:miter;stroke-miterlimit:4;stroke-dasharray:none;stroke-opacity:1"
         d="m 393.51733,329.44154 c 17.16284,-38.75481 20.48468,-47.0594 20.48468,-47.0594"
         id="path3974"
         inkscape:connector-curvature="0" />
      <path
         style="fill:#ffffff;fill-opacity:1;stroke:#000000;stroke-width:3.41054;stroke-linecap:butt;stroke-linejoin:miter;stroke-miterlimit:4;stroke-dasharray:none;stroke-opacity:1"
         d="m 365.83534,304.52774 c 8.30459,-27.682 10.51916,-63.6686 10.51916,-63.6686"
         id="path3976"
         inkscape:connector-curvature="0" />
      <path
         style="fill:#ffffff;fill-opacity:1;stroke:#000000;stroke-width:3.41054;stroke-linecap:butt;stroke-linejoin:miter;stroke-miterlimit:4;stroke-dasharray:none;stroke-opacity:1"
         d="m 449.43497,179.95874 c 0,0 4.42913,38.7548 19.3774,35.43295 14.94828,-3.32184 27.68078,9.96675 29.34292,12.73372 8.06221,13.42116 28.38077,37.02253 29.34293,89.68969"
         id="path3978"
         inkscape:connector-curvature="0"
         sodipodi:nodetypes="cssc" />
    </g>
  </g>
</svg>
