<?xml version="1.0" encoding="UTF-8" standalone="no"?>
<!-- Created with Inkscape (http://www.inkscape.org/) -->

<svg
   width="300mm"
   height="300mm"
   viewBox="0 0 300 300"
   version="1.1"
   id="svg5"
   inkscape:version="1.1 (ce6663b3b7, 2021-05-25)"
   sodipodi:docname="churchland-1998-fig1.svg"
   xmlns:inkscape="http://www.inkscape.org/namespaces/inkscape"
   xmlns:sodipodi="http://sodipodi.sourceforge.net/DTD/sodipodi-0.dtd"
   xmlns="http://www.w3.org/2000/svg"
   xmlns:svg="http://www.w3.org/2000/svg">
  <sodipodi:namedview
     id="namedview7"
     pagecolor="#ffffff"
     bordercolor="#666666"
     borderopacity="1.0"
     inkscape:pageshadow="2"
     inkscape:pageopacity="0.0"
     inkscape:pagecheckerboard="0"
     inkscape:document-units="mm"
     showgrid="false"
     inkscape:zoom="0.37659028"
     inkscape:cx="355.82437"
     inkscape:cy="584.18927"
     inkscape:window-width="1280"
     inkscape:window-height="656"
     inkscape:window-x="0"
     inkscape:window-y="27"
     inkscape:window-maximized="1"
     inkscape:current-layer="layer1"
     width="300mm" />
  <defs
     id="defs2">
    <marker
       style="overflow:visible;"
       id="Arrow1Lend"
       refX="0.0"
       refY="0.0"
       orient="auto"
       inkscape:stockid="Arrow1Lend"
       inkscape:isstock="true">
      <path
         transform="scale(0.8) rotate(180) translate(12.5,0)"
         style="fill-rule:evenodd;fill:context-stroke;stroke:context-stroke;stroke-width:1.0pt;"
         d="M 0.0,0.0 L 5.0,-5.0 L -12.5,0.0 L 5.0,5.0 L 0.0,0.0 z "
         id="path1171" />
    </marker>
    <marker
       style="overflow:visible"
       id="Arrow1Lstart"
       refX="0.0"
       refY="0.0"
       orient="auto"
       inkscape:stockid="Arrow1Lstart"
       inkscape:isstock="true">
      <path
         transform="scale(0.8) translate(12.5,0)"
         style="fill-rule:evenodd;fill:context-stroke;stroke:context-stroke;stroke-width:1.0pt"
         d="M 0.0,0.0 L 5.0,-5.0 L -12.5,0.0 L 5.0,5.0 L 0.0,0.0 z "
         id="path114469" />
    </marker>
    <rect
       x="413.44504"
       y="281.32794"
       width="126.30395"
       height="64.589989"
       id="rect93529" />
    <rect
       x="103.56422"
       y="469.26031"
       width="197.03378"
       height="53.404224"
       id="rect58161" />
    <rect
       x="330.59134"
       y="222.086"
       width="271.81827"
       height="75.602875"
       id="rect42616" />
    <rect
       x="109.67108"
       y="145.13972"
       width="276.90942"
       height="67.197441"
       id="rect14321" />
    <rect
       x="109.67108"
       y="145.13972"
       width="276.90942"
       height="67.197441"
       id="rect14321-7" />
    <rect
       x="109.67108"
       y="145.13972"
       width="276.90942"
       height="67.197441"
       id="rect14321-3" />
    <rect
       x="109.67108"
       y="145.13972"
       width="276.90942"
       height="67.197441"
       id="rect14321-2" />
    <rect
       x="109.67108"
       y="145.13972"
       width="276.90942"
       height="67.197441"
       id="rect14321-7-9" />
    <rect
       x="109.67108"
       y="145.13972"
       width="276.90942"
       height="67.197441"
       id="rect14321-3-1" />
    <rect
       x="330.59134"
       y="222.086"
       width="271.81827"
       height="75.602875"
       id="rect42616-9" />
    <rect
       x="413.44504"
       y="281.32794"
       width="193.64256"
       height="73.131805"
       id="rect93529-6" />
    <rect
       x="413.44504"
       y="281.32794"
       width="193.64256"
       height="73.131805"
       id="rect93529-6-6" />
    <rect
       x="109.67108"
       y="145.13972"
       width="276.90942"
       height="67.197441"
       id="rect14321-7-3" />
    <rect
       x="109.67108"
       y="145.13972"
       width="276.90942"
       height="67.197441"
       id="rect14321-7-3-7" />
    <rect
       x="109.67108"
       y="145.13972"
       width="276.90942"
       height="67.197441"
       id="rect14321-7-3-7-3" />
    <rect
       x="413.44504"
       y="281.32794"
       width="193.64256"
       height="73.131805"
       id="rect93529-6-6-7" />
    <marker
       style="overflow:visible"
       id="Arrow1Lend-3"
       refX="0"
       refY="0"
       orient="auto"
       inkscape:stockid="Arrow1Lend"
       inkscape:isstock="true">
      <path
         transform="matrix(-0.8,0,0,-0.8,-10,0)"
         style="fill:context-stroke;fill-rule:evenodd;stroke:context-stroke;stroke-width:1pt"
         d="M 0,0 5,-5 -12.5,0 5,5 Z"
         id="path1171-5" />
    </marker>
    <marker
       style="overflow:visible"
       id="Arrow1Lend-2"
       refX="0"
       refY="0"
       orient="auto"
       inkscape:stockid="Arrow1Lend"
       inkscape:isstock="true">
      <path
         transform="matrix(-0.8,0,0,-0.8,-10,0)"
         style="fill:context-stroke;fill-rule:evenodd;stroke:context-stroke;stroke-width:1pt"
         d="M 0,0 5,-5 -12.5,0 5,5 Z"
         id="path1171-9" />
    </marker>
    <marker
       style="overflow:visible"
       id="Arrow1Lend-27"
       refX="0"
       refY="0"
       orient="auto"
       inkscape:stockid="Arrow1Lend"
       inkscape:isstock="true">
      <path
         transform="matrix(-0.8,0,0,-0.8,-10,0)"
         style="fill:context-stroke;fill-rule:evenodd;stroke:context-stroke;stroke-width:1pt"
         d="M 0,0 5,-5 -12.5,0 5,5 Z"
         id="path1171-0" />
    </marker>
    <rect
       x="109.67108"
       y="145.13972"
       width="276.90942"
       height="67.197441"
       id="rect14321-36" />
    <rect
       x="109.67108"
       y="145.13972"
       width="276.90942"
       height="67.197441"
       id="rect14321-7-0" />
    <rect
       x="109.67108"
       y="145.13972"
       width="276.90942"
       height="67.197441"
       id="rect14321-3-6" />
    <rect
       x="109.67108"
       y="145.13972"
       width="276.90942"
       height="67.197441"
       id="rect14321-7-9-2" />
  </defs>
  <g
     inkscape:label="Layer 1"
     inkscape:groupmode="layer"
     id="layer1">
    <rect
       style="fill:#9955ff;stroke:#c8675c;stroke-width:12.1445;stroke-dasharray:0, 133.589;stroke-opacity:0.741844"
       id="rect940"
       width="12.095782"
       height="32.874638"
       x="184.58235"
       y="92.237854" />
    <rect
       style="fill:#b380ff;stroke:#c8675c;stroke-width:12.1445;stroke-dasharray:0, 133.589;stroke-opacity:0.741844"
       id="rect940-3"
       width="12.470189"
       height="20.000139"
       x="196.67813"
       y="105.11236" />
    <rect
       style="fill:#ccaaff;stroke:#c8675c;stroke-width:11.2764;stroke-dasharray:0, 124.04;stroke-opacity:0.741844"
       id="rect940-3-6"
       width="12.794386"
       height="26.623203"
       x="209.03398"
       y="98.489288" />
    <g
       id="g66606"
       transform="translate(152.86138,23.635922)">
      <path
         style="fill:none;stroke:#000000;stroke-width:0.252859px;stroke-linecap:butt;stroke-linejoin:miter;stroke-opacity:1"
         d="M 68.923896,101.47656 H 31.721237 V 62.753883"
         id="path1555" />
    </g>
    <text
       xml:space="preserve"
       transform="matrix(0.26458333,0,0,0.26458333,172.17222,40.224057)"
       id="text14319"
       style="font-size:24px;line-height:1.25;font-family:sans-serif;letter-spacing:0px;white-space:pre;shape-inside:url(#rect14321)"><tspan
         x="109.67188"
         y="166.375"
         id="tspan50571">Y</tspan></text>
    <text
       xml:space="preserve"
       transform="matrix(0.26458333,0,0,0.26458333,159.68391,40.224057)"
       id="text14319-5"
       style="font-size:24px;line-height:1.25;font-family:sans-serif;letter-spacing:0px;white-space:pre;shape-inside:url(#rect14321-7)"><tspan
         x="109.67188"
         y="166.375"
         id="tspan50573">X</tspan></text>
    <text
       xml:space="preserve"
       transform="matrix(0.26458333,0,0,0.26458333,184.4807,40.224057)"
       id="text14319-56"
       style="font-size:24px;line-height:1.25;font-family:sans-serif;letter-spacing:0px;white-space:pre;shape-inside:url(#rect14321-3)"><tspan
         x="109.67188"
         y="166.375"
         id="tspan50575">Z</tspan></text>
    <text
       xml:space="preserve"
       transform="matrix(0.26458333,0,0,0.26458333,146.65642,63.755491)"
       id="text14319-2"
       style="font-size:21.3333px;line-height:1.25;font-family:sans-serif;letter-spacing:0px;white-space:pre;shape-inside:url(#rect14321-2)"><tspan
         x="109.67188"
         y="164.0156"
         id="tspan50577">.5</tspan></text>
    <text
       xml:space="preserve"
       transform="matrix(0.26458333,0,0,0.26458333,147.55903,43.328695)"
       id="text14319-5-7"
       style="font-size:21.3333px;line-height:1.25;font-family:sans-serif;letter-spacing:0px;white-space:pre;shape-inside:url(#rect14321-7-9)"><tspan
         x="109.67188"
         y="164.0156"
         id="tspan50579">1</tspan></text>
    <text
       xml:space="preserve"
       transform="matrix(0.26458333,0,0,0.26458333,147.61002,84.185033)"
       id="text14319-56-0"
       style="font-size:21.3333px;line-height:1.25;font-family:sans-serif;letter-spacing:0px;white-space:pre;shape-inside:url(#rect14321-3-1)"><tspan
         x="109.67188"
         y="164.0156"
         id="tspan50581">0</tspan></text>
    <text
       xml:space="preserve"
       transform="matrix(0.26458333,0,0,0.26458333,137.51555,23.488386)"
       id="text42614"
       style="font-size:16px;line-height:1.25;font-family:sans-serif;letter-spacing:0px;white-space:pre;shape-inside:url(#rect42616)"><tspan
         x="330.5918"
         y="236.24219"
         id="tspan50583">(max.)</tspan></text>
    <text
       xml:space="preserve"
       transform="matrix(0.26458333,0,0,0.26458333,138.13566,64.349547)"
       id="text42614-3"
       style="font-size:16px;line-height:1.25;font-family:sans-serif;letter-spacing:0px;white-space:pre;shape-inside:url(#rect42616-9)"><tspan
         x="330.5918"
         y="236.24219"
         id="tspan50585">(min.)</tspan></text>
    <text
       xml:space="preserve"
       transform="matrix(0.26458333,0,0,0.26458333,139.10296,22.892518)"
       id="text93527"
       style="font-size:40px;line-height:1.25;font-family:sans-serif;letter-spacing:0px;white-space:pre;shape-inside:url(#rect93529)"><tspan
         x="413.44531"
         y="316.71875"
         id="tspan50589"><tspan
           style="font-size:21.3333px"
           id="tspan50587">Histogram</tspan></tspan></text>
    <g
       id="g16381"
       transform="translate(0,0.93600553)">
      <text
         xml:space="preserve"
         transform="matrix(0.26458333,0,0,0.26458333,149.65346,24.165088)"
         id="text58159"
         style="font-size:24px;line-height:1.25;font-family:sans-serif;letter-spacing:0px;white-space:pre;shape-inside:url(#rect58161)"
         x="58.17849"
         y="0"><tspan
           x="117.1084"
           y="490.49414"
           id="tspan50593"><tspan
             style="text-align:center;text-anchor:middle"
             id="tspan50591">&lt; .7,  .3,  .5 &gt;</tspan></tspan></text>
      <text
         xml:space="preserve"
         transform="matrix(0.26458333,0,0,0.26458333,139.61284,74.542897)"
         id="text93527-0"
         style="font-size:21.3333px;line-height:1.25;font-family:sans-serif;letter-spacing:0px;white-space:pre;shape-inside:url(#rect93529-6)"><tspan
           x="413.44531"
           y="300.2031"
           id="tspan50595">Vector</tspan></text>
    </g>
    <text
       xml:space="preserve"
       transform="matrix(0.26458333,0,0,0.26458333,139.31794,123.3817)"
       id="text93527-0-2"
       style="font-size:21.3333px;line-height:1.25;font-family:sans-serif;letter-spacing:0px;white-space:pre;shape-inside:url(#rect93529-6-6)"><tspan
         x="413.44531"
         y="300.2031"
         id="tspan50597">Point in 
</tspan><tspan
         x="413.44531"
         y="326.86972"
         id="tspan50599">activation space</tspan></text>
    <g
       sodipodi:type="inkscape:box3d"
       id="g113724"
       style="fill:none;fill-opacity:1;stroke:#000000;stroke-width:0.1;stroke-miterlimit:4;stroke-dasharray:0.025, 0.025;stroke-dashoffset:0;stroke-opacity:1"
       inkscape:perspectiveID="#perspective113722"
       inkscape:corner0="0.074542228 : 0.012786734 : 0 : 1"
       inkscape:corner7="-0.13083647 : -0.021327882 : 0.25 : 1">
      <path
         sodipodi:type="inkscape:box3dside"
         id="path113736"
         style="fill:none;fill-opacity:1;fill-rule:evenodd;stroke:#000000;stroke-width:0.1;stroke-linejoin:round;stroke-miterlimit:4;stroke-dasharray:0.025, 0.025;stroke-dashoffset:0;stroke-opacity:1"
         inkscape:box3dsidetype="11"
         points="205.54173,201.19938 205.54173,179.11329 232.2732,183.53446 232.2732,209.6736 "
         d="m 232.2732,209.6736 -26.73147,-8.47422 v -22.08609 l 26.73147,4.42117 z" />
      <path
         sodipodi:type="inkscape:box3dside"
         id="path113726"
         style="fill:none;fill-opacity:1;fill-rule:evenodd;stroke:#000000;stroke-width:0.1;stroke-linejoin:round;stroke-miterlimit:4;stroke-dasharray:0.025, 0.025;stroke-dashoffset:0;stroke-opacity:1"
         inkscape:box3dsidetype="6"
         points="205.54173,179.11329 179.57972,184.71851 179.57972,211.9431 205.54173,201.19938 "
         d="m 205.54173,201.19938 v -22.08609 l -25.96201,5.60522 v 27.22459 z" />
      <path
         sodipodi:type="inkscape:box3dside"
         id="path113734"
         style="fill:none;fill-opacity:1;fill-rule:evenodd;stroke:#000000;stroke-width:0.1;stroke-linejoin:round;stroke-miterlimit:4;stroke-dasharray:0.025, 0.025;stroke-dashoffset:0;stroke-opacity:1"
         inkscape:box3dsidetype="13"
         points="205.54173,201.19938 179.57972,211.9431 207.86536,225.39346 232.2732,209.6736 "
         d="m 232.2732,209.6736 -26.73147,-8.47422 -25.96201,10.74372 28.28564,13.45036 z" />
      <path
         sodipodi:type="inkscape:box3dside"
         id="path113728"
         style="fill:none;fill-opacity:1;fill-rule:evenodd;stroke:#000000;stroke-width:0.1;stroke-linejoin:round;stroke-miterlimit:4;stroke-dasharray:0.025, 0.025;stroke-dashoffset:0;stroke-opacity:1"
         inkscape:box3dsidetype="5"
         points="205.54173,179.11329 179.57972,184.71851 207.86536,191.73584 232.2732,183.53446 "
         d="m 232.2732,183.53446 -26.73147,-4.42117 -25.96201,5.60522 28.28564,7.01733 z" />
      <path
         sodipodi:type="inkscape:box3dside"
         id="path113732"
         style="fill:none;fill-opacity:1;fill-rule:evenodd;stroke:#000000;stroke-width:0.1;stroke-linejoin:round;stroke-miterlimit:4;stroke-dasharray:0.025, 0.025;stroke-dashoffset:0;stroke-opacity:1"
         inkscape:box3dsidetype="14"
         points="232.2732,183.53446 207.86536,191.73584 207.86536,225.39346 232.2732,209.6736 "
         d="m 232.2732,209.6736 v -26.13914 l -24.40784,8.20138 v 33.65762 z" />
      <path
         sodipodi:type="inkscape:box3dside"
         id="path113730"
         style="fill:none;fill-opacity:1;fill-rule:evenodd;stroke:#000000;stroke-width:0.1;stroke-linejoin:round;stroke-miterlimit:4;stroke-dasharray:0.025, 0.025;stroke-dashoffset:0;stroke-opacity:1"
         inkscape:box3dsidetype="3"
         points="179.57972,211.9431 179.57972,184.71851 207.86536,191.73584 207.86536,225.39346 "
         d="M 207.86536,225.39346 179.57972,211.9431 v -27.22459 l 28.28564,7.01733 z" />
    </g>
    <path
       style="fill:none;stroke:#000000;stroke-width:0.301627px;stroke-linecap:butt;stroke-linejoin:miter;stroke-opacity:1;marker-start:url(#Arrow1Lstart);marker-end:url(#Arrow1Lend)"
       d="m 179.84298,195.32283 v 16.79038 l 21.8621,10.33394"
       id="path114328" />
    <path
       style="fill:none;stroke:#000000;stroke-width:0.326065px;stroke-linecap:butt;stroke-linejoin:miter;stroke-opacity:1;marker-end:url(#Arrow1Lend)"
       d="m 180.12119,211.91492 10.30754,-4.50307"
       id="path114330" />
    <text
       xml:space="preserve"
       transform="matrix(0.26458333,0,0,0.26458333,168.9146,184.40806)"
       id="text14319-5-6"
       style="font-size:13.3333px;line-height:1.25;font-family:sans-serif;letter-spacing:0px;white-space:pre;shape-inside:url(#rect14321-7-3)"><tspan
         x="109.67188"
         y="156.93747"
         id="tspan50601">x</tspan></text>
    <text
       xml:space="preserve"
       transform="matrix(0.26458333,0,0,0.26458333,145.85582,157.28015)"
       id="text14319-5-6-5"
       style="font-size:13.3333px;line-height:1.25;font-family:sans-serif;letter-spacing:0px;white-space:pre;shape-inside:url(#rect14321-7-3-7)"><tspan
         x="109.67188"
         y="156.93747"
         id="tspan50603">z</tspan></text>
    <text
       xml:space="preserve"
       transform="matrix(0.26458333,0,0,0.26458333,158.34279,164.2894)"
       id="text14319-5-6-5-5"
       style="font-size:13.3333px;line-height:1.25;font-family:sans-serif;letter-spacing:0px;white-space:pre;shape-inside:url(#rect14321-7-3-7-3)"><tspan
         x="109.67188"
         y="156.93747"
         id="tspan50605">y</tspan></text>
    <path
       style="fill:none;stroke:#000000;stroke-width:0.31943;stroke-linecap:butt;stroke-linejoin:miter;stroke-miterlimit:4;stroke-dasharray:0.31943, 0.638861;stroke-dashoffset:0;stroke-opacity:1"
       d="m 201.07495,222.25749 9.39626,-4.60795 v -17.40651"
       id="path10339" />
    <circle
       style="fill:#11002b;fill-opacity:1;stroke:none;stroke-width:2.11065;stroke-dasharray:0, 23.2171;stroke-opacity:0.741844"
       id="path1587"
       cx="210.40028"
       cy="199.12473"
       r="1.2752843" />
    <g
       id="g10197"
       transform="translate(-3.7041668,-5.665209)">
      <path
         style="fill:none;stroke:#000000;stroke-width:0.264583;stroke-linecap:butt;stroke-linejoin:miter;stroke-miterlimit:4;stroke-dasharray:0.264583, 0.793749;stroke-dashoffset:0;stroke-opacity:1;marker-end:url(#Arrow1Lend)"
         d="m 152.2726,129.30522 15.1848,-8.76694"
         id="path9097" />
      <path
         style="fill:none;stroke:#000000;stroke-width:0.264583;stroke-linecap:butt;stroke-linejoin:miter;stroke-miterlimit:4;stroke-dasharray:0.264583, 0.793749;stroke-dashoffset:0;stroke-opacity:1;marker-end:url(#Arrow1Lend-2)"
         d="m 152.20645,158.55539 17.53389,1e-5"
         id="path9097-1" />
      <path
         style="fill:none;stroke:#000000;stroke-width:0.264583;stroke-linecap:butt;stroke-linejoin:miter;stroke-miterlimit:4;stroke-dasharray:0.264583, 0.793749;stroke-dashoffset:0;stroke-opacity:1;marker-end:url(#Arrow1Lend-27)"
         d="m 152.2726,187.80558 15.1848,8.76694"
         id="path9097-9" />
    </g>
    <g
       id="g3390"
       transform="matrix(1.6110923,0,0,1.6110923,-422.67135,101.33094)"
       style="fill:#ffffff;fill-opacity:1">
      <g
         style="opacity:1;fill:#ffffff;fill-opacity:1;stroke-width:3.41054;stroke-miterlimit:4;stroke-dasharray:none;image-rendering:auto"
         inkscape:label="Layer 1"
         id="layer1-7"
         transform="matrix(0.08297801,0,0,0.08297801,302.28746,8.0960723)">
        <path
           style="color:#000000;display:inline;overflow:visible;visibility:visible;fill:#ffffff;fill-opacity:1;stroke:#a6a6a6;stroke-width:3.41054;stroke-linecap:square;stroke-linejoin:round;stroke-miterlimit:4;stroke-dasharray:none;stroke-dashoffset:0;stroke-opacity:1;marker:none;enable-background:accumulate"
           d="m 333.119,318.68046 c -3.43185,-3.43184 -4.05001,-5.56946 -4.08986,-14.14278 0.16652,-10.74922 -6.49268,-11.61975 -9.46351,-21.23793 -1.88672,-6.46018 -13.13096,-15.34729 -30.1211,-23.8068 -13.93274,-6.08416 -29.14242,-9.22278 -39.41665,0.0943 -4.77876,4.36149 -5.69231,5.63764 -6.78826,9.48262 -1.54676,5.42651 -5.96321,12.36785 -8.34295,13.11262 -8.41419,4.75295 -14.51531,4.33708 -20.33065,-1.87471 -7.62288,-9.00197 -5.1759,-19.94182 1.22455,-28.95557 7.61148,-10.35475 10.07229,-12.58189 18.52754,-16.76816 18.01091,-6.26016 36.10263,-1.81748 56.37349,-8.01199 7.78904,-2.41562 21.33239,-3.88736 29.59965,-3.21655 32.75281,10.92734 58.70305,15.34372 83.03158,32.39529 8.25125,5.78319 17.10151,13.90404 19.93543,22.72297 -3.33718,5.11838 -6.38305,11.11326 -7.68739,16.51995 -0.6322,2.95229 -7.08622,9.98877 -11.00619,11.99949 -3.94605,2.02407 -21.96675,5.49903 -25.65169,4.94644 -1.81164,-0.27167 -6.10711,-2.13927 -9.54549,-4.15024 -10.96821,-6.41481 -15.98799,-5.10762 -25.76438,6.70927 -6.42511,7.76615 -6.76447,7.90152 -10.48412,4.18186 z m 35.04013,-24.15714 c 9.5686,-3.54895 12.87462,-7.65472 10.58194,-13.14184 -1.70212,-4.07377 -8.92534,-11.50465 -15.30726,-15.74735 -12.5719,-8.35778 -31.98466,-16.69192 -41.88312,-17.98094 -4.16929,-0.54294 -8.1531,0.52623 -8.1531,2.18814 0,1.24662 4.45937,5.54642 13.07405,12.60621 6.53565,5.356 11.40637,10.95729 17.45163,20.06925 5.54536,8.35844 8.70884,11.85954 12.08252,13.37203 3.5115,1.57424 4.53829,1.45888 12.15334,-1.3655 z"
           id="path3188"
           inkscape:connector-curvature="0"
           sodipodi:nodetypes="cccccsccccccaccsssscccsssssssc" />
        <path
           style="color:#000000;display:inline;overflow:visible;visibility:visible;fill:#ffffff;fill-opacity:1;stroke:#a6a6a6;stroke-width:3.41054;stroke-linecap:square;stroke-linejoin:round;stroke-miterlimit:4;stroke-dasharray:none;stroke-dashoffset:0;stroke-opacity:1;marker:none;enable-background:accumulate"
           d="m 215.91842,486.47836 c -2.15315,-0.58975 -5.50034,-1.6625 -7.43817,-2.38391 -1.93784,-0.72141 -6.26103,-1.57341 -9.60708,-1.89335 -3.34606,-0.31992 -6.28726,-0.7852 -6.53602,-1.03396 -0.51013,-0.51013 2.47894,-14.2182 4.11215,-18.85856 0.58665,-1.66682 3.13525,-5.24195 5.66355,-7.94471 3.28253,-3.50902 4.75774,-5.77137 5.15937,-7.91221 0.30934,-1.64894 1.39931,-5.649 2.42215,-8.88904 1.02284,-3.24003 2.40475,-9.52325 3.07091,-13.96272 0.66616,-4.43946 1.86456,-9.37214 2.66309,-10.96151 0.79855,-1.58937 1.89408,-4.82759 2.43451,-7.19607 0.54045,-2.36847 1.96029,-6.59647 3.15523,-9.39558 1.19493,-2.7991 2.42951,-6.32244 2.7435,-7.82965 0.31398,-1.50721 1.39389,-4.37378 2.39977,-6.37018 1.0059,-1.99639 2.41693,-7.10525 3.13564,-11.353 1.59917,-9.45154 5.05822,-20.9601 8.17378,-27.19488 1.38959,-2.78083 2.32806,-5.89169 2.32806,-7.71714 0,-3.4257 0.76926,-5.16729 4.14096,-9.37498 2.57033,-3.20763 2.41148,-5.33169 -0.3973,-5.31284 -2.30361,0.0154 -3.26575,0.68932 -4.60855,3.22771 -1.10267,2.08441 -7.89626,7.72182 -9.30552,7.72182 -1.03183,0 -1.82906,-3.44392 -1.2324,-5.32382 0.5446,-1.7159 6.41477,-8.02845 11.80032,-12.68961 2.41865,-2.09332 5.34261,-3.63598 8.99348,-4.7449 5.74206,-1.7441 8.61721,-1.49667 8.61721,0.74157 0,0.75167 0.96892,2.28235 2.15315,3.40149 1.94706,1.84003 3.03556,2.10432 11.37212,2.76127 8.72616,0.68765 9.60508,0.91951 16.44227,4.33755 11.32848,5.66332 16.47274,9.0081 18.40556,11.96724 2.69134,4.12043 2.94242,6.63018 0.92049,9.20067 l -1.72154,2.18858 -1.96875,-1.80946 c -1.0828,-0.99519 -2.78275,-3.62575 -3.77765,-5.84567 -2.88255,-6.4318 -6.66548,-8.07106 -11.58908,-5.02192 -3.32981,2.06212 -17.56439,16.79663 -18.43246,19.07984 -0.38525,1.01327 -0.45448,3.04491 -0.15386,4.51477 0.42336,2.07005 1.06918,2.82817 2.86504,3.36324 6.80803,2.02847 9.28862,3.2843 12.89904,6.53038 5.78264,5.1991 6.55869,7.09913 5.93826,14.53873 -0.28579,3.42683 -1.54793,9.27874 -2.84011,13.16808 -1.27915,3.85015 -2.32574,7.48771 -2.32574,8.08348 0,0.59576 -1.56688,4.20195 -3.48197,8.01375 -6.79472,13.52425 -16.42371,20.50457 -30.15082,21.8572 -3.01915,0.29751 -6.02748,0.93639 -6.68519,1.41973 -0.69547,0.51112 -1.70031,3.66345 -2.40155,7.53404 -0.66315,3.66035 -1.59777,7.7122 -2.0769,9.00409 -2.08101,5.61098 -9.54696,19.77385 -11.55671,21.92303 -1.20807,1.2919 -2.44926,3.22973 -2.75819,4.30632 -0.30891,1.07657 -1.55602,3.54291 -2.77131,5.48075 -1.2153,1.93783 -2.44895,4.49226 -2.74144,5.6765 -0.29249,1.18423 -0.75785,2.12996 -1.03413,2.10163 -0.27629,-0.0284 -2.26401,-0.53405 -4.41717,-1.12379 z"
           id="path3192"
           inkscape:connector-curvature="0" />
        <path
           style="fill:#ffffff;fill-opacity:1;stroke:#a6a6a6;stroke-width:3.41054;stroke-linecap:butt;stroke-linejoin:miter;stroke-miterlimit:4;stroke-dasharray:none;stroke-opacity:1"
           d="m 102.97783,181.18222 c 16.44228,28.96971 21.92303,42.28012 39.14827,64.9861 17.22523,22.706 21.92303,28.18676 21.92303,28.18676 0,0 -14.09338,20.35709 -29.75269,36.01639 -15.6593,15.65931 -31.31861,36.79937 -46.194935,42.28013 -14.876341,5.48075 -14.876341,5.48075 -14.876341,5.48075"
           id="path3194"
           inkscape:connector-curvature="0"
           sodipodi:nodetypes="cscssc" />
        <path
           style="fill:#ffffff;fill-opacity:1;stroke:#000000;stroke-width:3.41054;stroke-linecap:butt;stroke-linejoin:miter;stroke-miterlimit:4;stroke-dasharray:none;stroke-opacity:1"
           d="m 73.968772,357.91117 c 28.953418,-10.06051 47.800238,-10.74033 90.080358,-1.34475 38.25524,10.90174 102.51855,42.35487 126.86717,61.93457"
           id="path3196"
           inkscape:connector-curvature="0"
           sodipodi:nodetypes="ccc" />
        <path
           style="fill:#ffffff;fill-opacity:1;stroke:#000000;stroke-width:3.41054;stroke-linecap:butt;stroke-linejoin:miter;stroke-miterlimit:4;stroke-dasharray:none;stroke-opacity:1"
           d="M 411.74295,383.32973 C 409.00258,359.0578 396.5898,330.33709 391.10903,325.24781 359.52008,295.91525 336.99791,291.86688 308.50621,277.87842 271.97281,259.94177 234.32944,251.40659 195.67576,231.22004"
           id="path3198"
           inkscape:connector-curvature="0"
           sodipodi:nodetypes="csac" />
        <path
           inkscape:connector-curvature="0"
           style="color:#000000;display:inline;overflow:visible;visibility:visible;fill:#ffffff;fill-opacity:1;stroke:#000000;stroke-width:3.41054;stroke-miterlimit:4;stroke-dasharray:none;marker:none;enable-background:accumulate"
           d="m 229.77596,484.47014 c 5.03053,-3.22505 10.01218,-8.9673 19.14894,-22.07262 9.27838,-13.30844 13.8783,-18.38995 24.08517,-26.60673 4.3069,-3.46715 10.20074,-8.57223 13.09741,-11.34458 l 5.26669,-5.04068 4.38847,3.82986 c 18.27409,15.94795 24.12408,19.90031 33.35103,22.53257 11.23486,3.20509 28.90292,0.10249 50.77274,-8.91588 21.95329,-9.0528 27.89631,-17.15649 31.07433,-42.37182 l 1.34378,-10.66195 6.30093,-0.4906 c 3.46552,-0.26985 11.40979,-0.50193 17.65394,-0.51574 16.05355,-0.0355 34.02173,-1.25918 40.80171,-2.77865 12.54585,-2.81166 27.80068,-10.69477 36.84675,-19.04101 16.3412,-15.07701 25.87475,-40.50079 24.67824,-65.81119 -0.91913,-19.44291 -4.23708,-32.16395 -12.98098,-49.76933 -8.49126,-17.09666 -16.80405,-30.20824 -29.53245,-46.58091 -14.68881,-18.89436 -21.57962,-25.56368 -43.24957,-41.85952 -19.24022,-14.46869 -33.1774,-22.3819 -66.67347,-37.8557 -28.79523,-13.3022 -34.5186,-15.33209 -51.01162,-18.09214 -7.9013,-1.322247 -17.88933,-3.461697 -22.19564,-4.754307 -12.9819,-3.89675 -17.24278,-4.54233 -36.01639,-5.45703 -9.90451,-0.48257 -21.4808,-1.21535 -25.72507,-1.6284 -20.46194,-1.99131 -26.83214,-0.85153 -54.92035,9.82658 -43.07396,16.375147 -50.74485,22.256877 -84.13309,64.509947 -20.951509,26.51428 -28.262564,38.84107 -46.192355,77.88259 -14.220272,30.96417 -17.082893,42.62589 -16.264956,66.26015 0.466149,13.46909 1.673122,18.70541 6.58731,28.57822 3.604924,7.24244 5.231185,9.32145 15.647089,20.00306 5.485843,5.62578 9.399486,10.35916 10.359419,12.52926 1.244921,2.81434 1.709086,6.58636 2.404101,19.5367 0.963265,17.94913 1.934828,23.21345 6.066704,32.87211 12.085688,28.25152 34.179508,49.31784 61.288248,58.438 6.64788,2.23653 6.67845,2.23905 27.79526,2.29448 21.06134,0.0552 21.16193,0.0635 27.0123,2.21171 13.19584,4.84541 15.84141,4.88505 22.92538,0.34355 z"
           id="path3144-6" />
        <path
           style="fill:#ffffff;fill-opacity:1;stroke:#a6a6a6;stroke-width:3.41054;stroke-linecap:butt;stroke-linejoin:miter;stroke-miterlimit:4;stroke-dasharray:none;stroke-opacity:1"
           d="m 183.13412,117.39741 c 6.09004,20.48468 17.16285,51.48852 48.16669,57.57856 31.00384,6.09004 57.57857,-1.10728 78.61688,1.10728 39.35139,4.14223 86.92149,28.23564 109.06709,48.16668 22.1456,19.93105 24.36015,32.11112 24.36015,32.11112"
           id="path4040"
           inkscape:connector-curvature="0"
           sodipodi:nodetypes="csssc" />
        <path
           style="fill:#ffffff;fill-opacity:1;stroke:#000000;stroke-width:3.41054;stroke-linecap:butt;stroke-linejoin:miter;stroke-miterlimit:4;stroke-dasharray:none;stroke-opacity:1"
           d="m 270.05561,91.376343 c 0,0 -5.46092,13.248317 -1.10729,18.270107 9.59068,11.06257 44.29121,24.91381 46.50577,32.66476 2.21456,7.75096 -0.55364,16.6092 4.98276,25.46744 21.58469,26.45694 22.74502,58.901 19.3774,88.5824"
           id="path3968"
           inkscape:connector-curvature="0"
           sodipodi:nodetypes="ccscc" />
        <path
           style="fill:#ffffff;fill-opacity:1;stroke:#000000;stroke-width:3.41054;stroke-linecap:butt;stroke-linejoin:miter;stroke-miterlimit:4;stroke-dasharray:none;stroke-opacity:1"
           d="m 156.55941,119.90847 c 25.79175,0.9336 25.13018,12.80357 38.73851,15.92122 14.00935,3.20952 29.43431,-2.03089 43.03804,2.60605 14.39416,4.90636 26.69585,11.25969 37.74252,25.62959 18.60058,28.49103 11.50821,53.34432 -6.5765,74.57924"
           id="path3970"
           inkscape:connector-curvature="0"
           sodipodi:nodetypes="caacc" />
        <path
           style="fill:#ffffff;fill-opacity:1;stroke:#000000;stroke-width:3.41054;stroke-linecap:butt;stroke-linejoin:miter;stroke-miterlimit:4;stroke-dasharray:none;stroke-opacity:1"
           d="m 371.37173,147.84762 c 0,0 -6.01472,35.33797 8.70761,48.63685 18.73718,16.92554 84.20892,58.02569 84.92472,70.40727"
           id="path3972"
           inkscape:connector-curvature="0"
           sodipodi:nodetypes="csc" />
        <path
           style="fill:#ffffff;fill-opacity:1;stroke:#000000;stroke-width:3.41054;stroke-linecap:butt;stroke-linejoin:miter;stroke-miterlimit:4;stroke-dasharray:none;stroke-opacity:1"
           d="m 393.51733,329.44154 c 17.16284,-38.75481 20.48468,-47.0594 20.48468,-47.0594"
           id="path3974"
           inkscape:connector-curvature="0" />
        <path
           style="fill:#ffffff;fill-opacity:1;stroke:#000000;stroke-width:3.41054;stroke-linecap:butt;stroke-linejoin:miter;stroke-miterlimit:4;stroke-dasharray:none;stroke-opacity:1"
           d="m 365.83534,304.52774 c 8.30459,-27.682 10.51916,-63.6686 10.51916,-63.6686"
           id="path3976"
           inkscape:connector-curvature="0" />
        <path
           style="fill:#ffffff;fill-opacity:1;stroke:#000000;stroke-width:3.41054;stroke-linecap:butt;stroke-linejoin:miter;stroke-miterlimit:4;stroke-dasharray:none;stroke-opacity:1"
           d="m 449.43497,179.95874 c 0,0 4.42913,38.7548 19.3774,35.43295 14.94828,-3.32184 27.68078,9.96675 29.34292,12.73372 8.06221,13.42116 28.38077,37.02253 29.34293,89.68969"
           id="path3978"
           inkscape:connector-curvature="0"
           sodipodi:nodetypes="cssc" />
        <path
           style="fill:#ffffff;fill-opacity:1;stroke:#000000;stroke-width:3.41054;stroke-linecap:butt;stroke-linejoin:miter;stroke-miterlimit:4;stroke-dasharray:none;stroke-opacity:1"
           d="m 394.62461,406.95114 c -13.28736,-35.9866 -41.63438,-53.96435 -69.205,-73.08048 -43.6316,-30.25205 -113.67945,-38.64866 -146.7146,-62.00768"
           id="path4038"
           inkscape:connector-curvature="0"
           sodipodi:nodetypes="cac" />
        <path
           style="fill:#ffffff;fill-opacity:1;stroke:#000000;stroke-width:3.41054;stroke-linecap:butt;stroke-linejoin:miter;stroke-miterlimit:4;stroke-dasharray:none;stroke-opacity:1"
           d="M 342.03224,424.64998 C 328.74488,388.66338 300.1259,371.07202 272.82724,351.5695 240.23062,328.28205 196.52343,325.04267 163.48828,301.68365"
           id="path4038-6"
           inkscape:connector-curvature="0"
           sodipodi:nodetypes="cac" />
      </g>
      <rect
         ry="0"
         y="37.431057"
         x="327.35287"
         height="3.6264448"
         width="3.6264639"
         id="rect3268"
         style="fill:#ffffff;fill-opacity:1;stroke-width:0.0103632;stroke-miterlimit:4;stroke-dasharray:none;stroke-dashoffset:0" />
      <rect
         style="fill:#ffffff;fill-opacity:1;stroke-width:0.0103632;stroke-miterlimit:4;stroke-dasharray:none;stroke-dashoffset:0"
         id="rect3268-2"
         width="3.6264641"
         height="3.6264448"
         x="323.72641"
         y="37.431057"
         ry="0" />
    </g>
    <text
       xml:space="preserve"
       transform="matrix(0.26458333,0,0,0.26458333,-85.293363,71.490865)"
       id="text93527-0-2-5"
       style="font-size:21.3333px;line-height:1.25;font-family:sans-serif;letter-spacing:0px;white-space:pre;shape-inside:url(#rect93529-6-6-7)"
       x="52.411373"
       y="0"><tspan
         x="456.86564"
         y="300.2031"
         id="tspan50609"><tspan
           style="text-align:center;text-anchor:middle"
           id="tspan50607">Activation
</tspan></tspan><tspan
         x="471.07396"
         y="326.86972"
         id="tspan50613"><tspan
           style="text-align:center;text-anchor:middle"
           id="tspan50611">pattern</tspan></tspan></text>
    <rect
       style="fill:#ccaaff;fill-opacity:1;stroke:#c8675c;stroke-width:8.97001;stroke-dasharray:0, 98.67;stroke-opacity:0.741844"
       id="rect389"
       width="7.9623432"
       height="7.9623432"
       x="100.57023"
       y="149.8121" />
    <rect
       style="fill:#9955ff;fill-opacity:1;stroke:#c8675c;stroke-width:8.97001;stroke-dasharray:0, 98.67;stroke-opacity:0.741844"
       id="rect389-3"
       width="7.9623432"
       height="7.9623432"
       x="75.916054"
       y="149.8121" />
    <rect
       style="fill:#b380ff;fill-opacity:1;stroke:#c8675c;stroke-width:8.97001;stroke-dasharray:0, 98.67;stroke-opacity:0.741844"
       id="rect389-6"
       width="7.9623432"
       height="7.9623432"
       x="88.258644"
       y="149.8121" />
    <g
       id="g17026"
       transform="translate(324.15986,-225.83704)">
      <text
         xml:space="preserve"
         transform="matrix(0.26458333,0,0,0.26458333,-262.92951,347.32993)"
         id="text14319-6"
         style="font-size:24px;line-height:1.25;font-family:sans-serif;letter-spacing:0px;white-space:pre;shape-inside:url(#rect14321-36)"><tspan
           x="109.67188"
           y="166.375"
           id="tspan50615">Y</tspan></text>
      <text
         xml:space="preserve"
         transform="matrix(0.26458333,0,0,0.26458333,-275.41782,347.32993)"
         id="text14319-5-1"
         style="font-size:24px;line-height:1.25;font-family:sans-serif;letter-spacing:0px;white-space:pre;shape-inside:url(#rect14321-7-0)"><tspan
           x="109.67188"
           y="166.375"
           id="tspan50617">X</tspan></text>
      <text
         xml:space="preserve"
         transform="matrix(0.26458333,0,0,0.26458333,-250.62103,347.32993)"
         id="text14319-56-8"
         style="font-size:24px;line-height:1.25;font-family:sans-serif;letter-spacing:0px;white-space:pre;shape-inside:url(#rect14321-3-6)"><tspan
           x="109.67188"
           y="166.375"
           id="tspan50619">Z</tspan></text>
    </g>
  </g>
</svg>
